<svg version="1.1" xmlns="http://www.w3.org/2000/svg" viewBox="0 0 31.004 31.004">
	<g transform="matrix(1 0 0 1 15.5 15.5)">
		<path style="stroke: none; stroke-width: 1; stroke-dasharray: none; stroke-linecap: butt; stroke-dashoffset: 0; stroke-linejoin: miter; stroke-miterlimit: 4; fill: rgb(0,0,0); fill-rule: nonzero; opacity: 1;"  transform=" translate(-15.5, -15.5)" d="M 25.896 0 H 5.105 C 4.168 0 3.41 0.762 3.41 1.695 v 27.611 c 0 0.939 0.758 1.697 1.695 1.697 h 15.604 v -6.02 c 0 -0.936 0.764 -1.695 1.699 -1.695 h 5.186 V 1.695 C 27.594 0.762 26.836 0 25.896 0 z M 14.295 24.521 l -4.328 4.674 l -4.219 -4.791 h 2.109 v -6.779 h 4.326 v 6.896 H 14.295 z" stroke-linecap="round" />
		<g transform="matrix(1 0 0 1 9.49 12.35)">
			<path style="stroke: none; stroke-width: 1; stroke-dasharray: none; stroke-linecap: butt; stroke-dashoffset: 0; stroke-linejoin: miter; stroke-miterlimit: 4; fill: rgb(0,0,0); fill-rule: nonzero; opacity: 1;"  transform=" translate(-25, -27.85)" d="M 22.398 31.004 v -4.512 c 0 -0.938 0.757 -1.701 1.697 -1.701 l 3.498 -0.1 L 22.398 31.004 z" stroke-linecap="round" />
		</g>
	</g>
	<g transform="matrix(1 0 0 1 11.17 20.33)"  >
		<path style="stroke: rgb(0,0,0); stroke-width: 11; stroke-dasharray: none; stroke-linecap: round; stroke-dashoffset: 0; stroke-linejoin: round; stroke-miterlimit: 10; fill: none; fill-rule: nonzero; opacity: 1;"  transform=" translate(-11.17, -20.33)" d="M 12.333333333333332 16.322333333333333 Q 12.333333333333332 16.333333333333332 12.333333333333332 16.5 Q 12.333333333333332 16.666666666666664 12.333333333333332 16.833333333333332 Q 12.333333333333332 17 12.333333333333332 17.166666666666664 Q 12.333333333333332 17.333333333333332 12.333333333333332 17.5 Q 12.333333333333332 17.666666666666664 12.333333333333332 17.833333333333332 Q 12.333333333333332 18 12.333333333333332 18.166666666666664 Q 12.333333333333332 18.333333333333332 12.333333333333332 18.5 Q 12.333333333333332 18.666666666666664 12.333333333333332 18.833333333333332 Q 12.333333333333332 19 12.333333333333332 19.166666666666664 Q 12.333333333333332 19.333333333333332 12.333333333333332 19.5 Q 12.333333333333332 19.666666666666664 12.166666666666666 19.666666666666664 Q 12 19.666666666666664 12 19.833333333333332 Q 12 20 12 20.166666666666664 Q 12 20.333333333333332 12 20.5 Q 12 20.666666666666664 11.833333333333332 20.666666666666664 Q 11.666666666666666 20.666666666666664 11.666666666666666 20.833333333333332 Q 11.666666666666666 21 11.5 21.166666666666664 Q 11.333333333333332 21.333333333333332 11.333333333333332 21.5 Q 11.333333333333332 21.666666666666664 11.333333333333332 21.833333333333332 Q 11.333333333333332 22 11.166666666666666 22 Q 11 22 11 22.166666666666664 Q 11 22.333333333333332 10.833333333333332 22.333333333333332 Q 10.666666666666666 22.333333333333332 10.5 22.333333333333332 Q 10.333333333333332 22.333333333333332 10.333333333333332 22.5 Q 10.333333333333332 22.666666666666664 10.166666666666666 22.666666666666664 Q 10 22.666666666666664 10 22.833333333333332 Q 10 23 10.166666666666666 23 Q 10.333333333333332 23 10.333333333333332 23.166666666666664 Q 10.333333333333332 23.333333333333332 10.333333333333332 23.5 Q 10.333333333333332 23.666666666666664 10.333333333333332 23.833333333333332 Q 10.333333333333332 24 10.5 24 Q 10.666666666666666 24 10.666666666666666 24.166666666666664 Q 10.666666666666666 24.333333333333332 10.833333333333332 24.333333333333332 Q 11 24.333333333333332 11.166666666666666 24.333333333333332 L 11.344333333333331 24.333333333333332" stroke-linecap="round" />
	</g>
</svg>