<svg version="1.1" xmlns="http://www.w3.org/2000/svg" viewBox="0 0 161.399 161.399">
	<path d="M152.423,41.659h-89.66c-4.926,0-8.966-4.034-8.966-8.966v-8.966c0-4.926-4.034-8.966-8.966-8.966H8.966C4.04,14.76,0,18.794,0,23.726v107.593c0,4.932,4.034,8.969,8.966,8.969h82.42c-5.883-6.619-9.493-15.296-9.493-24.825c0-20.63,16.775-37.409,37.411-37.409c20.637,0,37.412,16.779,37.412,37.409c0,9.529-3.61,18.219-9.493,24.825h5.213c4.92,0,8.963-4.037,8.963-8.969V50.631C161.387,45.699,157.356,41.659,152.423,41.659z"/>
	<path d="M119.298,84.286c-17.214,0-31.176,13.957-31.176,31.177s13.962,31.177,31.176,31.177c17.221,0,31.177-13.957,31.177-31.177S136.519,84.286,119.298,84.286z M109.933,107.705c0-5.157,4.202-9.365,9.365-9.365c5.164,0,9.365,4.208,9.365,9.365v3.179h-3.471v-3.179c0-3.245-2.655-5.888-5.895-5.888s-5.895,2.643-5.895,5.888v3.179h-3.471V107.705z M132.317,130.843c0,0.95-0.785,1.741-1.729,1.741h-22.566c-0.943,0-1.735-0.791-1.735-1.741v-17.354c0-0.949,0.792-1.729,1.735-1.729h22.566c0.944,0,1.729,0.779,1.729,1.729V130.843z"/>
</svg>