<svg version="1.1" xmlns="http://www.w3.org/2000/svg" viewBox="0 0 145.042 119.041">
	<g transform="matrix(1 0 0 1 73.02 56.9)">
		<path style="stroke: none; stroke-width: 1; stroke-dasharray: none; stroke-linecap: butt; stroke-dashoffset: 0; stroke-linejoin: miter; stroke-miterlimit: 4; fill: rgb(0,0,0); fill-rule: nonzero; opacity: 1;"  transform=" translate(-72.52, -69.67)" d="M 136.975 37.437 H 56.403 c -4.426 0 -8.057 -3.625 -8.057 -8.057 v -8.058 c 0 -4.427 -3.625 -8.057 -8.059 -8.057 H 8.059 C 3.631 13.264 0 16.89 0 21.321 v 96.688 c 0 4.433 3.625 8.061 8.059 8.061 h 74.066 c -5.284 -5.948 -8.529 -13.746 -8.529 -22.31 c 0 -18.538 15.073 -33.617 33.618 -33.617 s 33.622 15.079 33.622 33.617 c 0 8.563 -3.245 16.373 -8.531 22.31 h 4.684 c 4.422 0 8.054 -3.628 8.054 -8.061 V 45.5 C 145.032 41.067 141.41 37.437 136.975 37.437 z" stroke-linecap="round" />
	</g>
	<g transform="matrix(1 0 0 1 105.34 112.33)">
		<line style="stroke: rgb(0,0,0); stroke-width: 2; stroke-dasharray: none; stroke-linecap: butt; stroke-dashoffset: 0; stroke-linejoin: miter; stroke-miterlimit: 4; fill: rgb(0,0,0); fill-rule: nonzero; opacity: 1;"  x1="-30.66666666666667" y1="0" x2="30.66666666666667" y2="0" />
	</g>
	<g transform="matrix(1 0 0 1 103.67 81.5)">
		<path style="stroke: rgb(0,0,0); stroke-width: 20; stroke-dasharray: none; stroke-linecap: round; stroke-dashoffset: 0; stroke-linejoin: round; stroke-miterlimit: 10; fill:  none; fill-rule: nonzero; opacity: 1;"  transform=" translate(-103.67, -81.5)" d="M 84.33333333333333 99.31333333333333 Q 84.33333333333333 99.33333333333333 84.33333333333333 99.5 Q 84.33333333333333 99.66666666666666 84.33333333333333 99.83333333333333 Q 84.33333333333333 100 84.33333333333333 100.16666666666666 Q 84.33333333333333 100.33333333333333 84.33333333333333 100.5 Q 84.33333333333333 100.66666666666666 84.33333333333333 100.83333333333333 Q 84.33333333333333 101 84.33333333333333 101.16666666666666 Q 84.33333333333333 101.33333333333333 84.5 101.5 Q 84.66666666666666 101.66666666666666 84.66666666666666 101.83333333333333 Q 84.66666666666666 102 84.5 102 Q 84.33333333333333 102 84.5 102 Q 84.66666666666666 102 84.83333333333333 102 Q 85 102 85.16666666666666 102 Q 85.33333333333333 102 85.5 102 Q 85.66666666666666 102 85.83333333333333 102 Q 86 102 86.16666666666666 102 Q 86.33333333333333 102 86.5 102 Q 86.66666666666666 102 86.66666666666666 101.83333333333333 Q 86.66666666666666 101.66666666666666 86.83333333333333 101.66666666666666 Q 87 101.66666666666666 87.16666666666666 101.66666666666666 Q 87.33333333333333 101.66666666666666 87.5 101.66666666666666 Q 87.66666666666666 101.66666666666666 87.83333333333333 101.66666666666666 Q 88 101.66666666666666 88.16666666666666 101.66666666666666 Q 88.33333333333333 101.66666666666666 88.5 101.66666666666666 Q 88.66666666666666 101.66666666666666 88.83333333333333 101.66666666666666 Q 89 101.66666666666666 89.16666666666666 101.66666666666666 Q 89.33333333333333 101.66666666666666 89.5 101.66666666666666 Q 89.66666666666666 101.66666666666666 89.83333333333333 101.66666666666666 Q 90 101.66666666666666 90.16666666666666 101.66666666666666 Q 90.33333333333333 101.66666666666666 90.5 101.66666666666666 Q 90.66666666666666 101.66666666666666 90.83333333333333 101.66666666666666 Q 91 101.66666666666666 91.16666666666666 101.66666666666666 Q 91.33333333333333 101.66666666666666 91.5 101.66666666666666 Q 91.66666666666666 101.66666666666666 91.83333333333333 101.66666666666666 Q 92 101.66666666666666 92.16666666666666 101.66666666666666 Q 92.33333333333333 101.66666666666666 92.66666666666666 101.66666666666666 Q 93 101.66666666666666 93.16666666666666 101.66666666666666 Q 93.33333333333333 101.66666666666666 93.5 101.66666666666666 Q 93.66666666666666 101.66666666666666 93.83333333333333 101.66666666666666 Q 94 101.66666666666666 94 101.83333333333333 Q 94 102 94.16666666666666 102 Q 94.33333333333333 102 94.5 102 Q 94.66666666666666 102 94.83333333333333 102 Q 95 102 95.16666666666666 102 Q 95.33333333333333 102 95.5 102 Q 95.66666666666666 102 95.83333333333333 102 Q 96 102 96.16666666666666 102 Q 96.33333333333333 102 96.5 102 Q 96.66666666666666 102 96.83333333333333 102 Q 97 102 97.16666666666666 102.16666666666666 Q 97.33333333333333 102.33333333333333 97.5 102.33333333333333 Q 97.66666666666666 102.33333333333333 97.83333333333333 102.33333333333333 Q 98 102.33333333333333 98.16666666666666 102.33333333333333 Q 98.33333333333333 102.33333333333333 98.5 102.33333333333333 Q 98.66666666666666 102.33333333333333 98.83333333333333 102.33333333333333 Q 99 102.33333333333333 99.16666666666666 102.33333333333333 Q 99.33333333333333 102.33333333333333 99.5 102.33333333333333 Q 99.66666666666666 102.33333333333333 99.83333333333333 102.5 Q 100 102.66666666666666 100.16666666666666 102.66666666666666 Q 100.33333333333333 102.66666666666666 100.5 102.66666666666666 Q 100.66666666666666 102.66666666666666 100.83333333333333 102.66666666666666 Q 101 102.66666666666666 101.16666666666666 102.66666666666666 Q 101.33333333333333 102.66666666666666 101.5 102.66666666666666 Q 101.66666666666666 102.66666666666666 101.83333333333333 102.66666666666666 Q 102 102.66666666666666 102.16666666666666 102.66666666666666 Q 102.33333333333333 102.66666666666666 102.5 102.66666666666666 Q 102.66666666666666 102.66666666666666 102.83333333333333 102.66666666666666 Q 103 102.66666666666666 103.16666666666666 102.66666666666666 Q 103.33333333333333 102.66666666666666 103.5 102.66666666666666 Q 103.66666666666666 102.66666666666666 103.83333333333333 102.66666666666666 Q 104 102.66666666666666 104.16666666666666 102.66666666666666 Q 104.33333333333333 102.66666666666666 104.5 102.66666666666666 Q 104.66666666666666 102.66666666666666 104.83333333333333 102.66666666666666 Q 105 102.66666666666666 105.16666666666666 102.66666666666666 Q 105.33333333333333 102.66666666666666 105.5 102.66666666666666 Q 105.66666666666666 102.66666666666666 106 102.66666666666666 Q 106.33333333333333 102.66666666666666 106.5 102.66666666666666 Q 106.66666666666666 102.66666666666666 106.83333333333333 102.66666666666666 Q 107 102.66666666666666 107.16666666666666 102.66666666666666 Q 107.33333333333333 102.66666666666666 107.66666666666666 102.66666666666666 Q 108 102.66666666666666 108.16666666666666 102.66666666666666 Q 108.33333333333333 102.66666666666666 108.5 102.5 Q 108.66666666666666 102.33333333333333 108.83333333333333 102.33333333333333 Q 109 102.33333333333333 109.16666666666666 102.33333333333333 Q 109.33333333333333 102.33333333333333 109.5 102.33333333333333 Q 109.66666666666666 102.33333333333333 109.83333333333333 102.33333333333333 Q 110 102.33333333333333 110.16666666666666 102.33333333333333 Q 110.33333333333333 102.33333333333333 110.5 102.33333333333333 Q 110.66666666666666 102.33333333333333 110.83333333333333 102.33333333333333 Q 111 102.33333333333333 111.16666666666666 102.33333333333333 Q 111.33333333333333 102.33333333333333 111.5 102.33333333333333 Q 111.66666666666666 102.33333333333333 111.83333333333333 102.33333333333333 Q 112 102.33333333333333 112.16666666666666 102.33333333333333 Q 112.33333333333333 102.33333333333333 112.5 102.33333333333333 Q 112.66666666666666 102.33333333333333 113 102.33333333333333 Q 113.33333333333333 102.33333333333333 113.5 102.33333333333333 Q 113.66666666666666 102.33333333333333 113.83333333333333 102.33333333333333 Q 114 102.33333333333333 114.16666666666666 102.33333333333333 Q 114.33333333333333 102.33333333333333 114.66666666666666 102.33333333333333 Q 115 102.33333333333333 115.16666666666666 102.16666666666666 Q 115.33333333333333 102 115.5 102 Q 115.66666666666666 102 115.83333333333333 102 Q 116 102 116.16666666666666 102 Q 116.33333333333333 102 116.66666666666666 102 Q 117 102 117.16666666666666 102 Q 117.33333333333333 102 117.5 102 Q 117.66666666666666 102 117.83333333333333 102 Q 118 102 118.16666666666666 102 Q 118.33333333333333 102 118.5 102 Q 118.66666666666666 102 118.66666666666666 102.16666666666666 Q 118.66666666666666 102.33333333333333 118.83333333333333 102.33333333333333 Q 119 102.33333333333333 119.16666666666666 102.33333333333333 Q 119.33333333333333 102.33333333333333 119.5 102.33333333333333 Q 119.66666666666666 102.33333333333333 119.83333333333333 102.33333333333333 Q 120 102.33333333333333 120.16666666666666 102.33333333333333 Q 120.33333333333333 102.33333333333333 120.5 102.5 Q 120.66666666666666 102.66666666666666 120.83333333333333 102.66666666666666 Q 121 102.66666666666666 121.16666666666666 102.66666666666666 Q 121.33333333333333 102.66666666666666 121.66666666666666 102.66666666666666 Q 122 102.66666666666666 122.16666666666666 102.66666666666666 Q 122.33333333333333 102.66666666666666 122.5 102.66666666666666 Q 122.66666666666666 102.66666666666666 122.83333333333333 102.66666666666666 Q 123 102.66666666666666 123.16666666666666 102.66666666666666 Q 123.33333333333333 102.66666666666666 123.5 102.66666666666666 Q 123.66666666666666 102.66666666666666 123.83333333333333 102.66666666666666 Q 124 102.66666666666666 124.16666666666666 102.66666666666666 Q 124.33333333333333 102.66666666666666 124.5 102.66666666666666 Q 124.66666666666666 102.66666666666666 124.83333333333333 102.66666666666666 Q 125 102.66666666666666 125.16666666666666 102.66666666666666 Q 125.33333333333333 102.66666666666666 125.5 102.66666666666666 Q 125.66666666666666 102.66666666666666 125.83333333333333 102.66666666666666 Q 126 102.66666666666666 126.16666666666666 102.66666666666666 Q 126.33333333333333 102.66666666666666 126.5 102.66666666666666 Q 126.66666666666666 102.66666666666666 126.83333333333333 102.66666666666666 Q 127 102.66666666666666 127.16666666666666 102.66666666666666 Q 127.33333333333333 102.66666666666666 127.5 102.66666666666666 Q 127.66666666666666 102.66666666666666 127.83333333333333 102.66666666666666 Q 128 102.66666666666666 128.16666666666666 102.66666666666666 Q 128.33333333333331 102.66666666666666 128.5 102.66666666666666 Q 128.66666666666666 102.66666666666666 128.83333333333331 102.66666666666666 Q 129 102.66666666666666 129.16666666666666 102.66666666666666 Q 129.33333333333331 102.66666666666666 129.5 102.66666666666666 Q 129.66666666666666 102.66666666666666 129.66666666666666 102.5 Q 129.66666666666666 102.33333333333333 129.66666666666666 102.16666666666666 Q 129.66666666666666 102 129.83333333333331 102 Q 130 102 130 101.83333333333333 Q 130 101.66666666666666 130 101.5 Q 130 101.33333333333333 130.16666666666666 101.16666666666666 Q 130.33333333333331 101 130.33333333333331 100.83333333333333 Q 130.33333333333331 100.66666666666666 130.5 100.66666666666666 Q 130.66666666666666 100.66666666666666 130.66666666666666 100.5 Q 130.66666666666666 100.33333333333333 130.66666666666666 100.16666666666666 Q 130.66666666666666 100 130.66666666666666 99.83333333333333 Q 130.66666666666666 99.66666666666666 130.66666666666666 99.5 Q 130.66666666666666 99.33333333333333 130.83333333333331 99.33333333333333 Q 131 99.33333333333333 131 99.16666666666666 Q 131 99 131 98.83333333333333 Q 131 98.66666666666666 131 98.5 Q 131 98.33333333333333 131.16666666666666 98.16666666666666 Q 131.33333333333331 98 131.33333333333331 97.83333333333333 Q 131.33333333333331 97.66666666666666 131.33333333333331 97.33333333333333 Q 131.33333333333331 97 131.33333333333331 96.83333333333333 Q 131.33333333333331 96.66666666666666 131.5 96.5 Q 131.66666666666666 96.33333333333333 131.66666666666666 96.16666666666666 Q 131.66666666666666 96 131.66666666666666 95.83333333333333 Q 131.66666666666666 95.66666666666666 131.66666666666666 95.5 Q 131.66666666666666 95.33333333333333 131.66666666666666 95.16666666666666 Q 131.66666666666666 95 131.66666666666666 94.83333333333333 Q 131.66666666666666 94.66666666666666 131.5 94.5 Q 131.33333333333331 94.33333333333333 131.33333333333331 94 Q 131.33333333333331 93.66666666666666 131.33333333333331 93.5 Q 131.33333333333331 93.33333333333333 131.33333333333331 93.16666666666666 Q 131.33333333333331 93 131.33333333333331 92.66666666666666 Q 131.33333333333331 92.33333333333333 131.16666666666666 92.16666666666666 Q 131 92 131 91.83333333333333 Q 131 91.66666666666666 131 91.5 Q 131 91.33333333333333 131 91.16666666666666 Q 131 91 131 90.83333333333333 Q 131 90.66666666666666 131 90.5 Q 131 90.33333333333333 131 90.16666666666666 Q 131 90 131 89.83333333333333 Q 131 89.66666666666666 131 89.5 Q 131 89.33333333333333 131 89.16666666666666 Q 131 89 131 88.83333333333333 Q 131 88.66666666666666 131 88.5 Q 131 88.33333333333333 131 88.16666666666666 Q 131 88 131.16666666666666 87.66666666666666 Q 131.33333333333331 87.33333333333333 131.33333333333331 87.16666666666666 Q 131.33333333333331 87 131.33333333333331 86.83333333333333 Q 131.33333333333331 86.66666666666666 131.33333333333331 86.5 Q 131.33333333333331 86.33333333333333 131.33333333333331 86.5 Q 131.33333333333331 86.66666666666666 131.33333333333331 86.83333333333333 Q 131.33333333333331 87 131.33333333333331 87.16666666666666 Q 131.33333333333331 87.33333333333333 131.33333333333331 87.66666666666666 Q 131.33333333333331 88 131.33333333333331 88.16666666666666 Q 131.33333333333331 88.33333333333333 131.5 88.33333333333333 Q 131.66666666666666 88.33333333333333 131.66666666666666 88.5 Q 131.66666666666666 88.66666666666666 131.66666666666666 88.83333333333333 Q 131.66666666666666 89 131.66666666666666 88.83333333333333 Q 131.66666666666666 88.66666666666666 131.66666666666666 88.5 Q 131.66666666666666 88.33333333333333 131.66666666666666 88.16666666666666 Q 131.66666666666666 88 131.66666666666666 87.83333333333333 Q 131.66666666666666 87.66666666666666 131.66666666666666 87.5 Q 131.66666666666666 87.33333333333333 131.66666666666666 87.16666666666666 Q 131.66666666666666 87 131.66666666666666 86.83333333333333 Q 131.66666666666666 86.66666666666666 131.66666666666666 86.5 Q 131.66666666666666 86.33333333333333 131.5 86.16666666666666 Q 131.33333333333331 86 131.33333333333331 85.83333333333333 Q 131.33333333333331 85.66666666666666 131.33333333333331 85.5 Q 131.33333333333331 85.33333333333333 131.16666666666666 85.16666666666666 Q 131 85 130.83333333333331 84.66666666666666 Q 130.66666666666666 84.33333333333333 130.66666666666666 84.16666666666666 Q 130.66666666666666 84 130.66666666666666 83.66666666666666 Q 130.66666666666666 83.33333333333333 130.5 83.16666666666666 Q 130.33333333333331 83 130.33333333333331 82.83333333333333 Q 130.33333333333331 82.66666666666666 130.16666666666666 82.5 Q 130 82.33333333333333 130 82.16666666666666 Q 130 82 129.83333333333331 82 Q 129.66666666666666 82 129.66666666666666 81.83333333333333 Q 129.66666666666666 81.66666666666666 129.66666666666666 81.5 Q 129.66666666666666 81.33333333333333 129.5 81.16666666666666 Q 129.33333333333331 81 129.33333333333331 80.83333333333333 Q 129.33333333333331 80.66666666666666 129.16666666666666 80.5 Q 129 80.33333333333333 129 80.16666666666666 Q 129 80 129 79.83333333333333 Q 129 79.66666666666666 128.83333333333331 79.5 Q 128.66666666666666 79.33333333333333 128.66666666666666 79.16666666666666 Q 128.66666666666666 79 128.66666666666666 78.83333333333333 Q 128.66666666666666 78.66666666666666 128.66666666666666 78.5 Q 128.66666666666666 78.33333333333333 128.5 78 Q 128.33333333333331 77.66666666666666 128.33333333333331 77.33333333333333 Q 128.33333333333331 77 127.99999999999999 76.66666666666666 Q 127.66666666666666 76.33333333333333 127.66666666666666 76.16666666666666 Q 127.66666666666666 76 127.66666666666666 75.66666666666666 Q 127.66666666666666 75.33333333333333 127.5 75.16666666666666 Q 127.33333333333333 75 127.33333333333333 74.83333333333333 Q 127.33333333333333 74.66666666666666 127.16666666666666 74.66666666666666 Q 127 74.66666666666666 127 74.5 Q 127 74.33333333333333 127 74 Q 127 73.66666666666666 126.83333333333333 73.5 Q 126.66666666666666 73.33333333333333 126.66666666666666 73.16666666666666 Q 126.66666666666666 73 126.5 72.83333333333333 Q 126.33333333333333 72.66666666666666 126.16666666666666 72.5 Q 126 72.33333333333333 125.83333333333333 72 Q 125.66666666666666 71.66666666666666 125.5 71.5 Q 125.33333333333333 71.33333333333333 125.16666666666666 71.33333333333333 Q 125 71.33333333333333 124.83333333333333 71.16666666666666 Q 124.66666666666666 71 124.33333333333333 70.66666666666666 Q 124 70.33333333333333 123.66666666666666 70.16666666666666 Q 123.33333333333333 70 123 69.83333333333333 Q 122.66666666666666 69.66666666666666 122.5 69.33333333333333 Q 122.33333333333333 69 121.83333333333333 68.66666666666666 Q 121.33333333333333 68.33333333333333 121 68 Q 120.66666666666666 67.66666666666666 120 67.16666666666666 Q 119.33333333333333 66.66666666666666 119.16666666666666 66.5 Q 119 66.33333333333333 118.66666666666666 66 Q 118.33333333333333 65.66666666666666 118.16666666666666 65.5 Q 118 65.33333333333333 117.5 64.83333333333333 Q 117 64.33333333333333 116.66666666666666 64.16666666666666 Q 116.33333333333333 64 116.16666666666666 64 Q 116 64 116 63.83333333333333 Q 116 63.666666666666664 115.83333333333333 63.5 Q 115.66666666666666 63.33333333333333 115.33333333333333 63 Q 115 62.666666666666664 114.5 62 Q 114 61.33333333333333 113.5 61.166666666666664 Q 113 61 112.83333333333333 60.83333333333333 Q 112.66666666666666 60.666666666666664 112.33333333333333 60.666666666666664 Q 112 60.666666666666664 111.66666666666666 60.666666666666664 Q 111.33333333333333 60.666666666666664 110.83333333333333 60.5 Q 110.33333333333333 60.33333333333333 109.83333333333333 60.33333333333333 Q 109.33333333333333 60.33333333333333 108.83333333333333 60.33333333333333 Q 108.33333333333333 60.33333333333333 107.83333333333333 60.33333333333333 Q 107.33333333333333 60.33333333333333 106.66666666666666 60.33333333333333 Q 106 60.33333333333333 105.33333333333333 60.33333333333333 Q 104.66666666666666 60.33333333333333 104 60.33333333333333 Q 103.33333333333333 60.33333333333333 103 60.33333333333333 Q 102.66666666666666 60.33333333333333 102.33333333333333 60.5 Q 102 60.666666666666664 101.33333333333333 60.666666666666664 Q 100.66666666666666 60.666666666666664 100.33333333333333 60.83333333333333 Q 100 61 99.5 61 Q 99 61 98.16666666666666 61.166666666666664 Q 97.33333333333333 61.33333333333333 96.83333333333333 61.5 Q 96.33333333333333 61.666666666666664 95.83333333333333 61.666666666666664 Q 95.33333333333333 61.666666666666664 94.66666666666666 61.666666666666664 Q 94 61.666666666666664 93.66666666666666 61.83333333333333 Q 93.33333333333333 62 93 62.166666666666664 Q 92.66666666666666 62.33333333333333 92.33333333333333 62.33333333333333 Q 92 62.33333333333333 91.66666666666666 62.5 Q 91.33333333333333 62.666666666666664 90.83333333333333 62.83333333333333 Q 90.33333333333333 63 89.83333333333333 63.33333333333333 Q 89.33333333333333 63.666666666666664 88.16666666666666 64.5 Q 87 65.33333333333333 86.33333333333333 65.83333333333333 Q 85.66666666666666 66.33333333333333 85 66.83333333333333 Q 84.33333333333333 67.33333333333333 84 67.66666666666666 Q 83.66666666666666 68 83.5 68.16666666666666 Q 83.33333333333333 68.33333333333333 83 68.66666666666666 Q 82.66666666666666 69 82.5 69.16666666666666 Q 82.33333333333333 69.33333333333333 82 69.66666666666666 Q 81.66666666666666 70 81.33333333333333 70.33333333333333 Q 81 70.66666666666666 80.83333333333333 71 Q 80.66666666666666 71.33333333333333 80.33333333333333 72 Q 80 72.66666666666666 79.83333333333333 73.16666666666666 Q 79.66666666666666 73.66666666666666 79.5 74.16666666666666 Q 79.33333333333333 74.66666666666666 79 75.33333333333333 Q 78.66666666666666 76 78.33333333333333 77 Q 78 78 77.66666666666666 78.66666666666666 Q 77.33333333333333 79.33333333333333 77 80 Q 76.66666666666666 80.66666666666666 76.33333333333333 81.33333333333333 Q 76 82 75.83333333333333 82.5 Q 75.66666666666666 83 75.66666666666666 83.5 Q 75.66666666666666 84 75.66666666666666 84.33333333333333 Q 75.66666666666666 84.66666666666666 75.66666666666666 85 Q 75.66666666666666 85.33333333333333 75.66666666666666 85.66666666666666 Q 75.66666666666666 86 75.66666666666666 86.5 Q 75.66666666666666 87 75.66666666666666 87.5 Q 75.66666666666666 88 75.66666666666666 88.5 Q 75.66666666666666 89 75.83333333333333 89.83333333333333 Q 76 90.66666666666666 76.33333333333333 91 Q 76.66666666666666 91.33333333333333 77 91.66666666666666 Q 77.33333333333333 92 77.66666666666666 92.33333333333333 Q 78 92.66666666666666 78.33333333333333 92.83333333333333 Q 78.66666666666666 93 79 93 Q 79.33333333333333 93 79.66666666666666 92.83333333333333 Q 80 92.66666666666666 80.16666666666666 92.5 Q 80.33333333333333 92.33333333333333 80.66666666666666 92.33333333333333 Q 81 92.33333333333333 81.5 92.16666666666666 Q 82 92 82.5 91.5 Q 83 91 83.33333333333333 90.83333333333333 Q 83.66666666666666 90.66666666666666 83.83333333333333 90.33333333333333 Q 84 90 84 89.83333333333333 Q 84 89.66666666666666 84.16666666666666 89.33333333333333 Q 84.33333333333333 89 84.66666666666666 88.16666666666666 Q 85 87.33333333333333 85.33333333333333 86.83333333333333 Q 85.66666666666666 86.33333333333333 85.83333333333333 85.66666666666666 Q 86 85 86.16666666666666 84.66666666666666 Q 86.33333333333333 84.33333333333333 86.5 84 Q 86.66666666666666 83.66666666666666 86.83333333333333 83.16666666666666 Q 87 82.66666666666666 87.16666666666666 82.16666666666666 Q 87.33333333333333 81.66666666666666 87.66666666666666 80.83333333333333 Q 88 80 88.33333333333333 79.5 Q 88.66666666666666 79 88.83333333333333 78.5 Q 89 78 89.16666666666666 77.66666666666666 Q 89.33333333333333 77.33333333333333 89.66666666666666 77 Q 90 76.66666666666666 90.5 76.33333333333333 Q 91 76 91.5 75.5 Q 92 75 92.33333333333333 74.66666666666666 Q 92.66666666666666 74.33333333333333 93.16666666666666 74 Q 93.66666666666666 73.66666666666666 94.33333333333333 73.33333333333333 Q 95 73 95.33333333333333 72.83333333333333 Q 95.66666666666666 72.66666666666666 96 72.5 Q 96.33333333333333 72.33333333333333 96.83333333333333 72.16666666666666 Q 97.33333333333333 72 97.66666666666666 72 Q 98 72 98.33333333333333 71.83333333333333 Q 98.66666666666666 71.66666666666666 99.16666666666666 71.66666666666666 Q 99.66666666666666 71.66666666666666 100.16666666666666 71.66666666666666 Q 100.66666666666666 71.66666666666666 101.33333333333333 71.66666666666666 Q 102 71.66666666666666 102.66666666666666 72 Q 103.33333333333333 72.33333333333333 104 72.5 Q 104.66666666666666 72.66666666666666 105.33333333333333 72.83333333333333 Q 106 73 107 73.33333333333333 Q 108 73.66666666666666 108.66666666666666 74.16666666666666 Q 109.33333333333333 74.66666666666666 109.83333333333333 75 Q 110.33333333333333 75.33333333333333 110.66666666666666 75.5 Q 111 75.66666666666666 111.33333333333333 75.83333333333333 Q 111.66666666666666 76 112 76.16666666666666 Q 112.33333333333333 76.33333333333333 112.83333333333333 76.5 Q 113.33333333333333 76.66666666666666 113.66666666666666 77 Q 114 77.33333333333333 114.33333333333333 77.5 Q 114.66666666666666 77.66666666666666 115 77.83333333333333 Q 115.33333333333333 78 115.5 78.16666666666666 Q 115.66666666666666 78.33333333333333 115.83333333333333 78.5 Q 116 78.66666666666666 116.33333333333333 78.83333333333333 Q 116.66666666666666 79 117 79.33333333333333 Q 117.33333333333333 79.66666666666666 117.5 80 Q 117.66666666666666 80.33333333333333 117.83333333333333 80.66666666666666 Q 118 81 118.16666666666666 81.16666666666666 Q 118.33333333333333 81.33333333333333 118.5 81.83333333333333 Q 118.66666666666666 82.33333333333333 118.83333333333333 83 Q 119 83.66666666666666 119.33333333333333 84.16666666666666 Q 119.66666666666666 84.66666666666666 119.83333333333333 85 Q 120 85.33333333333333 120 85.83333333333333 Q 120 86.33333333333333 120 86.66666666666666 Q 120 87 120 87.33333333333333 Q 120 87.66666666666666 119.66666666666666 88 Q 119.33333333333333 88.33333333333333 119 88.5 Q 118.66666666666666 88.66666666666666 118.33333333333333 89 Q 118 89.33333333333333 117.16666666666666 89.66666666666666 Q 116.33333333333333 90 116 90.16666666666666 Q 115.66666666666666 90.33333333333333 115.16666666666666 90.33333333333333 Q 114.66666666666666 90.33333333333333 114.16666666666666 90.5 Q 113.66666666666666 90.66666666666666 113.16666666666666 90.66666666666666 Q 112.66666666666666 90.66666666666666 112.16666666666666 90.83333333333333 Q 111.66666666666666 91 111 91.16666666666666 Q 110.33333333333333 91.33333333333333 110 91.33333333333333 Q 109.66666666666666 91.33333333333333 109.16666666666666 91.33333333333333 Q 108.66666666666666 91.33333333333333 108.16666666666666 91.33333333333333 Q 107.66666666666666 91.33333333333333 107.16666666666666 91.33333333333333 Q 106.66666666666666 91.33333333333333 106.16666666666666 91.33333333333333 Q 105.66666666666666 91.33333333333333 105 91.33333333333333 Q 104.33333333333333 91.33333333333333 103.66666666666666 91.33333333333333 Q 103 91.33333333333333 102.33333333333333 91.33333333333333 Q 101.66666666666666 91.33333333333333 101 91.5 Q 100.33333333333333 91.66666666666666 100.16666666666666 91.66666666666666 Q 100 91.66666666666666 99.83333333333333 91.66666666666666 Q 99.66666666666666 91.66666666666666 99.5 91.5 Q 99.33333333333333 91.33333333333333 99.16666666666666 91.16666666666666 Q 99 91 98.5 90.83333333333333 Q 98 90.66666666666666 97.66666666666666 90.66666666666666 Q 97.33333333333333 90.66666666666666 97.33333333333333 90.5 Q 97.33333333333333 90.33333333333333 97.16666666666666 90.16666666666666 Q 97 90 97 89.83333333333333 Q 97 89.66666666666666 97 89.33333333333333 Q 97 89 97 88.66666666666666 Q 97 88.33333333333333 97 88 Q 97 87.66666666666666 97 87.5 Q 97 87.33333333333333 97 87 Q 97 86.66666666666666 97 86.5 Q 97 86.33333333333333 97.16666666666666 86 Q 97.33333333333333 85.66666666666666 97.33333333333333 85.5 Q 97.33333333333333 85.33333333333333 97.5 85.16666666666666 Q 97.66666666666666 85 97.66666666666666 84.83333333333333 Q 97.66666666666666 84.66666666666666 97.83333333333333 84.5 Q 98 84.33333333333333 98.33333333333333 84.16666666666666 Q 98.66666666666666 84 98.83333333333333 84 Q 99 84 99.16666666666666 84 Q 99.33333333333333 84 99.5 84 Q 99.66666666666666 84 100 84 Q 100.33333333333333 84 100.66666666666666 84 Q 101 84 101.33333333333333 84 Q 101.66666666666666 84 102.16666666666666 84 Q 102.66666666666666 84 103 84 Q 103.33333333333333 84 103.5 84 Q 103.66666666666666 84 103.83333333333333 84 Q 104 84 104.16666666666666 84.16666666666666 Q 104.33333333333333 84.33333333333333 104.5 84.5 Q 104.66666666666666 84.66666666666666 105.16666666666666 85 Q 105.66666666666666 85.33333333333333 105.83333333333333 85.5 Q 106 85.66666666666666 106.16666666666666 85.83333333333333 Q 106.33333333333333 86 106.5 86.33333333333333 Q 106.66666666666666 86.66666666666666 106.83333333333333 86.83333333333333 Q 107 87 107 87.16666666666666 Q 107 87.33333333333333 107.16666666666666 87.33333333333333 Q 107.33333333333333 87.33333333333333 107.16666666666666 87.33333333333333 L 106.98 87.33333333333333" stroke-linecap="round" />
	</g>
</svg>